<svg width="104" height="80" viewBox="0 0 104 80" version="1.1" xmlns="http://www.w3.org/2000/svg" xmlns:xlink="http://www.w3.org/1999/xlink" xmlns:figma="http://www.figma.com/figma/ns">
<title>conference</title>
<desc>Created using Figma</desc>
<g id="Canvas" transform="translate(167 -136)" figma:type="canvas">
<g id="conference" style="mix-blend-mode:normal;" figma:type="frame">
<g id="Group" style="mix-blend-mode:normal;" figma:type="frame">
<g id="Vector" style="mix-blend-mode:normal;" figma:type="vector">
<use xlink:href="#path0_fill" transform="translate(-166.083 136)" fill="#FFCC33" style="mix-blend-mode:normal;"/>
</g>
</g>
</g>
</g>
<defs>
<path id="path0_fill" d="M 100.98 20.0293C 99.6915 18.858 93.7179 18.6237 89.7355 18.5066L 89.2669 18.5066C 89.0327 18.5066 88.9155 18.5066 88.7984 18.5066C 88.2128 18.5066 87.6271 18.5066 87.1586 18.5066C 83.9961 18.5066 82.5905 21.7862 82.3562 23.0747C 82.0049 24.7145 80.8335 28.9312 80.1308 31.6252L 79.7794 31.1567L 79.428 30.6881C 80.2479 27.9942 81.185 24.3631 81.5363 22.8404C 81.7706 21.3177 83.4104 17.5695 87.2757 17.5695C 87.8614 17.5695 88.5642 17.5695 89.1498 17.5695C 89.6183 15.4612 89.2669 13.9385 88.0956 12.8843C 87.2757 12.1815 83.8789 11.713 77.9053 11.713C 77.5539 11.713 77.0854 11.713 76.734 11.713C 74.2743 11.713 73.2201 14.2899 72.9858 15.2269C 72.7516 16.3982 72.0488 18.7408 71.4631 20.4978L 71.1117 20.0293L 70.7604 19.5608C 71.346 17.9209 71.9316 15.9297 72.0488 14.9927C 72.283 13.8214 73.5715 10.6589 76.734 10.6589C 77.2025 10.6589 77.671 10.6589 78.1396 10.6589C 78.3738 9.01903 78.0224 7.61347 77.2025 6.79355C 76.0312 5.73938 70.1747 5.15374 67.9492 5.15374C 65.7237 5.15374 64.7867 7.26208 64.6696 8.31625C 64.4353 9.25329 64.0839 10.776 63.7325 11.9473C 62.6784 11.3616 61.3899 11.0102 59.8672 10.6589L 59.8672 4.21669C 59.8672 1.87408 56.0019 -7.14907e-06 51.1996 -7.14907e-06C 46.3972 -7.14907e-06 42.5319 1.87408 42.5319 4.21669L 42.5319 10.6589C 41.1264 11.0102 39.8379 11.3616 38.9009 11.9473C 38.5495 10.8931 38.1981 9.37043 37.9639 8.43339C 37.8467 7.49635 36.7926 5.27086 34.6842 5.27086C 32.5759 5.27086 26.6022 5.85652 25.4309 6.91069C 24.4939 7.7306 24.1425 9.13617 24.4939 10.776C 24.9624 10.776 25.4309 10.776 25.8994 10.776C 29.062 10.776 30.3504 13.9385 30.5847 15.1098C 30.8189 16.0469 31.2874 17.9209 31.8731 19.5608L 31.5217 20.0293L 31.1703 20.4978C 30.5847 18.7408 29.8819 16.5154 29.6476 15.3441C 29.4134 14.407 28.4763 11.8302 25.8994 11.8302C 25.4309 11.8302 25.0795 11.8302 24.7281 11.8302C 18.7545 11.8302 15.3577 12.2987 14.5378 13.0015C 13.4836 14.0556 13.1322 15.5783 13.4836 17.6867C 14.0693 17.6867 14.7721 17.6867 15.3577 17.6867C 19.223 17.6867 20.7457 21.552 21.0971 22.9575C 21.3314 24.3631 22.3855 27.877 23.0883 30.571L 22.7369 31.0395L 22.3855 31.5081C 21.5656 28.8141 20.3943 24.7145 20.1601 23.0747C 19.9258 21.7862 18.6374 18.5066 15.3577 18.5066C 14.8892 18.5066 14.4207 18.5066 13.7179 18.5066C 13.6008 18.5066 13.3665 18.5066 13.2494 18.5066L 12.7809 18.5066C 8.79843 18.6237 2.82477 18.858 1.53634 20.0293C -0.103483 21.552 -0.454878 24.246 0.599295 27.5256C 2.00486 31.8594 5.63591 51.7716 5.75304 52.5915C 5.75304 52.5915 6.92434 54.9341 13.3665 55.9883L 13.3665 63.1332L 7.1586 60.6735C 6.57295 60.4392 5.87016 60.6735 5.6359 61.3763C 5.51877 61.8448 5.51877 62.3133 5.87016 62.5476C 5.75303 62.7818 5.6359 63.0161 5.6359 63.3675C 5.6359 64.1874 6.22155 64.7731 7.04146 64.7731C 7.74424 64.7731 8.21276 64.3045 8.44702 63.7189L 11.9609 65.1244L 6.45581 67.3499C 5.87016 67.5842 5.51878 68.287 5.75304 68.8726C 5.75304 68.9898 5.87016 68.9897 5.87016 69.1069C 5.75303 69.3411 5.6359 69.5754 5.6359 69.8097C 5.6359 70.5124 6.22155 71.2152 7.04146 71.2152C 7.86137 71.2152 8.44702 70.6296 8.44702 69.8097C 8.44702 69.5754 8.3299 69.3411 8.3299 69.1069L 15.2406 66.4129L 21.917 69.1069C 21.7999 69.224 21.7999 69.3411 21.7999 69.5754C 21.7999 70.2782 22.3855 70.981 23.2054 70.981C 23.9082 70.981 24.611 70.3953 24.611 69.5754C 24.611 69.3411 24.611 69.224 24.4939 69.1069C 24.4939 69.1069 24.4939 68.9897 24.611 68.9897C 24.8453 68.4041 24.611 67.7013 23.9082 67.467L 18.4031 65.2416L 22.1513 63.7189C 22.3855 64.0703 22.7369 64.3045 23.2054 64.3045C 23.9082 64.3045 24.611 63.7189 24.611 62.899C 24.611 62.7818 24.611 62.6647 24.4939 62.4305C 24.611 62.1962 24.7281 61.7277 24.4939 61.4934C 24.2596 60.9077 23.5568 60.5564 22.9712 60.7906L 16.7633 63.2504L 16.7633 56.4568C 16.9975 56.4568 17.2318 56.4568 17.4661 56.4568C 17.8175 56.6911 18.1688 56.8082 18.6374 57.0425C 18.9888 57.1596 19.4573 57.3938 19.9258 57.511C 22.7369 58.5651 26.0166 59.6193 29.6476 60.3221C 31.4046 61.4934 32.9273 63.0161 32.9273 65.1244C 32.9273 69.8097 32.9273 76.0175 32.9273 76.0175C 32.9273 76.0175 34.6842 80 51.9024 80C 69.2376 80 70.9946 76.0175 70.9946 76.0175C 70.9946 76.0175 70.9946 69.8097 70.9946 65.1244C 70.9946 63.1332 72.283 61.6105 73.8057 60.5564C 78.0224 59.7365 81.8877 58.6823 84.9331 57.511C 85.0502 57.511 85.2845 57.511 85.4016 57.511L 85.4016 63.2504L 79.1937 60.7906C 78.6081 60.5564 77.9053 60.9077 77.671 61.4934C 77.5539 61.9619 77.5539 62.4304 77.9053 62.6647C 77.7882 62.899 77.671 63.1332 77.671 63.4846C 77.671 64.1874 78.2567 64.8902 79.0766 64.8902C 79.7794 64.8902 80.2479 64.4217 80.4822 63.836L 83.9961 65.2416L 78.4909 67.467C 77.9053 67.7013 77.5539 68.4041 77.7882 68.9897C 77.7882 69.1069 77.9053 69.1069 77.9053 69.224C 77.7882 69.4583 77.671 69.6925 77.671 69.9268C 77.671 70.6296 78.2567 71.3323 79.0766 71.3323C 79.7794 71.3323 80.4822 70.7467 80.4822 69.9268C 80.4822 69.6925 80.365 69.4583 80.365 69.224L 87.1586 66.53L 93.835 69.224C 93.7179 69.3411 93.7179 69.4583 93.7179 69.6925C 93.7179 70.3953 94.3035 71.0981 95.1235 71.0981C 95.9434 71.0981 96.529 70.5124 96.529 69.6925C 96.529 69.4583 96.529 69.3411 96.4119 69.224C 96.4119 69.224 96.4119 69.1069 96.529 69.1069C 96.7633 68.5212 96.529 67.8185 95.8262 67.5842L 90.3211 65.3587L 94.0693 63.836C 94.3035 64.1874 94.7721 64.4217 95.1235 64.4217C 95.9434 64.4217 96.529 63.836 96.529 63.0161C 96.529 62.899 96.529 62.7818 96.4119 62.5476C 96.529 62.3133 96.6461 61.8448 96.4119 61.6105C 96.1776 61.0249 95.4748 60.6735 94.8892 60.9077L 88.6813 63.3675L 88.6813 56.3397C 96.0605 55.4026 97.2318 52.8258 97.2318 52.7086C 97.3489 52.0058 100.98 31.9766 102.386 27.7599C 102.971 24.246 102.62 21.552 100.98 20.0293ZM 88.3299 46.6179C 88.3299 46.735 88.3299 46.735 88.3299 46.735C 86.8072 50.4831 69.3548 54.9341 51.1996 54.9341C 32.5759 54.9341 16.0605 49.5461 14.5378 46.1493C 14.5378 46.0322 14.4207 46.0322 14.4207 45.9151C 14.4207 45.798 14.4207 45.7979 14.4207 45.6808C 14.4207 45.5637 14.5378 45.4466 14.6549 45.2123L 21.5656 36.3104L 23.7911 33.4993L 30.3504 25.183L 32.693 22.2548L 38.081 15.3441C 39.2523 13.9385 42.4148 12.2987 51.0825 12.2987C 57.9931 12.2987 62.4441 13.3529 64.0839 15.3441L 69.5891 22.3719L 71.1117 24.246L 78.3738 33.4993L 80.0136 35.6076L 87.3929 44.978L 87.51 45.0952C 88.3299 46.0322 88.3299 46.3836 88.3299 46.6179Z"/>
</defs>
</svg>
