<svg width="80" height="81" viewBox="0 0 80 81" version="1.1" xmlns="http://www.w3.org/2000/svg" xmlns:xlink="http://www.w3.org/1999/xlink" xmlns:figma="http://www.figma.com/figma/ns">
<title>network</title>
<desc>Created using Figma</desc>
<g id="Canvas" transform="translate(81 208)" figma:type="canvas">
<g id="network" style="mix-blend-mode:normal;" figma:type="frame">
<g id="Vector" style="mix-blend-mode:normal;" figma:type="vector">
<use xlink:href="#path0_fill" transform="translate(-81 -207.444)" fill="#FFCC33" style="mix-blend-mode:normal;"/>
</g>
</g>
</g>
<defs>
<path id="path0_fill" d="M 17.1424 0C 7.68531 0 0 7.68531 0 17.1424C 0 26.2958 7.20039 33.7904 16.2378 34.2622L 16.2378 45.7378C 7.20039 46.2096 0 53.7042 0 62.8576C 0 72.3147 7.68531 80 17.1424 80C 26.2958 80 33.7904 72.7996 34.2622 63.7622L 45.7378 63.7622C 46.2096 72.7996 53.7042 80 62.8576 80C 72.3147 80 80 72.3147 80 62.8576C 80 53.7042 72.7996 46.2096 63.7622 45.7378L 63.7622 34.2622C 72.7996 33.7904 80 26.2958 80 17.1424C 80 7.68531 72.3147 0 62.8576 0C 53.7042 0 46.2096 7.20039 45.7378 16.2378L 34.2622 16.2378C 33.7904 7.20039 26.2958 0 17.1424 0ZM 17.1424 1.80903C 25.6242 1.80903 32.4757 8.66055 32.4757 17.1424C 32.4757 21.4484 30.7045 25.3286 27.8559 28.1111C 27.3963 26.3125 26.7356 23.9643 25.5312 21.8385C 24.3727 19.7937 22.6227 17.9398 20.1198 17.1059C 21.6709 16.0079 22.7174 14.1146 22.7188 12.0729C 22.7209 8.89114 20.1895 6.0434 17.151 6.0434C 14.1125 6.0434 11.5748 8.8833 11.5764 12.0642C 11.5774 14.1042 12.6239 16.005 14.1753 17.1059C 11.6702 17.9398 9.91564 19.7938 8.75521 21.8385C 7.54886 23.9642 6.8879 26.3123 6.42882 28.1111C 3.58025 25.3286 1.80903 21.4484 1.80903 17.1424C 1.80903 8.66055 8.66054 1.80903 17.1424 1.80903ZM 62.8576 1.80903C 71.3395 1.80903 78.191 8.66055 78.191 17.1424C 78.191 21.4484 76.4198 25.3286 73.5712 28.1111C 73.1115 26.3125 72.4492 23.9643 71.2448 21.8385C 70.0862 19.7937 68.3363 17.9398 65.8333 17.1059C 67.3844 16.0079 68.4309 14.1146 68.4323 12.0729C 68.4344 8.89114 65.9047 6.0434 62.8663 6.0434C 59.8277 6.0434 57.2884 8.8833 57.2899 12.0642C 57.2909 14.1042 58.3375 16.005 59.8889 17.1059C 57.3838 17.9398 55.6292 19.7938 54.4688 21.8385C 53.2624 23.9642 52.6032 26.3123 52.1441 28.1111C 49.2955 25.3286 47.5243 21.4484 47.5243 17.1424C 47.5243 8.66055 54.3758 1.80903 62.8576 1.80903ZM 17.151 7.74653C 19.0541 7.74653 21.0155 9.82733 21.0139 12.0642C 21.0123 14.299 19.0526 16.3837 17.151 16.3837C 15.2495 16.3837 13.2806 14.2988 13.2795 12.0642C 13.2784 9.82788 15.2481 7.74653 17.151 7.74653ZM 62.8663 7.74653C 64.7694 7.74653 66.7308 9.82733 66.7292 12.0642C 66.7276 14.299 64.7679 16.3837 62.8663 16.3837C 60.9648 16.3837 58.9958 14.2988 58.9948 12.0642C 58.9937 9.82788 60.9634 7.74653 62.8663 7.74653ZM 34.2622 18.0469L 45.7378 18.0469C 46.194 26.7847 53.2153 33.8045 61.9531 34.2604L 61.9531 45.7396C 53.2153 46.1955 46.194 53.2153 45.7378 61.9531L 34.2622 61.9531C 33.806 53.2153 26.7847 46.1955 18.0469 45.7396L 18.0469 34.2604C 26.7847 33.8045 33.806 26.7847 34.2622 18.0469ZM 17.151 18.3108C 20.6893 18.3108 22.6892 20.1982 24.0868 22.6649C 25.3319 24.8625 25.9639 27.4357 26.4444 29.3212C 23.8645 31.2931 20.6477 32.4757 17.1424 32.4757C 13.6373 32.4757 10.4218 31.2928 7.84201 29.3212C 8.32353 27.436 8.96118 24.8625 10.2083 22.6649C 11.6083 20.1981 13.6128 18.3108 17.151 18.3108ZM 62.8663 18.3108C 66.4045 18.3108 68.4028 20.1982 69.8003 22.6649C 71.0454 24.8624 71.6775 27.4357 72.158 29.3212C 69.5782 31.2928 66.3627 32.4757 62.8576 32.4757C 59.3523 32.4757 56.1355 31.2931 53.5556 29.3212C 54.0371 27.436 54.6764 24.8626 55.9236 22.6649C 57.3236 20.1981 59.3281 18.3108 62.8663 18.3108ZM 17.1424 47.5243C 25.6242 47.5243 32.4757 54.3758 32.4757 62.8576C 32.4757 67.1637 30.7045 71.0439 27.8559 73.8264C 27.3963 72.0275 26.736 69.6802 25.5312 67.5538C 24.3727 65.509 22.6227 63.6551 20.1198 62.8212C 21.6709 61.7232 22.7156 59.8298 22.717 57.7882C 22.7191 54.6064 20.1895 51.7569 17.151 51.7569C 14.1125 51.7569 11.5748 54.5986 11.5764 57.7795C 11.5774 59.8195 12.6239 61.7202 14.1753 62.8212C 11.6702 63.6551 9.91564 65.509 8.75521 67.5538C 7.54848 69.6802 6.88791 72.0274 6.42882 73.8264C 3.58019 71.0439 1.80903 67.1637 1.80903 62.8576C 1.80903 54.3758 8.66054 47.5243 17.1424 47.5243ZM 62.8576 47.5243C 71.3395 47.5243 78.191 54.3758 78.191 62.8576C 78.191 67.1637 76.4198 71.0439 73.5712 73.8264C 73.1115 72.0275 72.4496 69.6803 71.2448 67.5538C 70.0862 65.509 68.3363 63.6551 65.8333 62.8212C 67.3844 61.7232 68.4309 59.8298 68.4323 57.7882C 68.4344 54.6064 65.9047 51.7569 62.8663 51.7569C 59.8277 51.7569 57.2884 54.5986 57.2899 57.7795C 57.2909 59.8195 58.3375 61.7202 59.8889 62.8212C 57.3838 63.6551 55.6292 65.509 54.4688 67.5538C 53.262 69.6802 52.6032 72.0274 52.1441 73.8264C 49.2955 71.0439 47.5243 67.1637 47.5243 62.8576C 47.5243 54.3758 54.3758 47.5243 62.8576 47.5243ZM 17.151 53.4601C 19.0541 53.4601 21.0155 55.5426 21.0139 57.7795C 21.0123 60.0143 19.0526 62.099 17.151 62.099C 15.2495 62.099 13.2806 60.014 13.2795 57.7795C 13.2784 55.5432 15.2481 53.4601 17.151 53.4601ZM 62.8663 53.4601C 64.7694 53.4601 66.7308 55.5426 66.7292 57.7795C 66.7276 60.0143 64.7679 62.099 62.8663 62.099C 60.9648 62.099 58.9958 60.014 58.9948 57.7795C 58.9937 55.5432 60.9634 53.4601 62.8663 53.4601ZM 17.151 64.026C 20.6893 64.026 22.6875 65.9117 24.0851 68.3785C 25.3302 70.576 25.9639 73.1492 26.4444 75.0347C 23.8645 77.0067 20.6477 78.191 17.1424 78.191C 13.6373 78.191 10.4218 77.0063 7.84201 75.0347C 8.32353 73.1496 8.96118 70.5761 10.2083 68.3785C 11.6083 65.9116 13.6128 64.026 17.151 64.026ZM 62.8663 64.026C 66.4045 64.026 68.4028 65.9117 69.8003 68.3785C 71.0454 70.5759 71.6775 73.1492 72.158 75.0347C 69.5782 77.0063 66.3627 78.191 62.8576 78.191C 59.3523 78.191 56.1355 77.0067 53.5556 75.0347C 54.0371 73.1496 54.6764 70.5761 55.9236 68.3785C 57.3236 65.9116 59.3281 64.026 62.8663 64.026Z"/>
</defs>
</svg>
