<svg width="85" height="80" viewBox="0 0 85 80" version="1.1" xmlns="http://www.w3.org/2000/svg" xmlns:xlink="http://www.w3.org/1999/xlink" xmlns:figma="http://www.figma.com/figma/ns">
<title>office</title>
<desc>Created using Figma</desc>
<g id="Canvas" transform="translate(207 45)" figma:type="canvas">
<g id="office" style="mix-blend-mode:normal;" figma:type="frame">
<g id="Group" style="mix-blend-mode:normal;" figma:type="frame">
<g id="Group" style="mix-blend-mode:normal;" figma:type="frame">
<g id="Group" style="mix-blend-mode:normal;" figma:type="frame">
<g id="Vector" style="mix-blend-mode:normal;" figma:type="vector">
<use xlink:href="#path0_fill" transform="translate(-204.175 -7.36802)" fill="#FFCC33" style="mix-blend-mode:normal;"/>
</g>
<g id="Vector" style="mix-blend-mode:normal;" figma:type="vector">
<use xlink:href="#path1_fill" transform="translate(-204.175 23.7019)" fill="#FFCC33" style="mix-blend-mode:normal;"/>
</g>
<g id="Vector" style="mix-blend-mode:normal;" figma:type="vector">
<use xlink:href="#path1_fill" transform="translate(-133.562 23.7019)" fill="#FFCC33" style="mix-blend-mode:normal;"/>
</g>
<g id="Vector" style="mix-blend-mode:normal;" figma:type="vector">
<use xlink:href="#path2_fill" transform="translate(-207 -13.0171)" fill="#FFCC33" style="mix-blend-mode:normal;"/>
</g>
<g id="Vector" style="mix-blend-mode:normal;" figma:type="vector">
<use xlink:href="#path3_fill" transform="translate(-207 -18.6662)" fill="#FFCC33" style="mix-blend-mode:normal;"/>
</g>
<g id="Vector" style="mix-blend-mode:normal;" figma:type="vector">
<use xlink:href="#path4_fill" transform="translate(-204.175 -24.3152)" fill="#FFCC33" style="mix-blend-mode:normal;"/>
</g>
<g id="Vector" style="mix-blend-mode:normal;" figma:type="vector">
<use xlink:href="#path5_fill" transform="translate(-178.755 -44.0573)" fill="#FFCC33" style="mix-blend-mode:normal;"/>
</g>
<g id="Vector" style="mix-blend-mode:normal;" figma:type="vector">
<use xlink:href="#path6_fill" transform="translate(-185.816 23.7019)" fill="#FFCC33" style="mix-blend-mode:normal;"/>
</g>
<g id="Vector" style="mix-blend-mode:normal;" figma:type="vector">
<use xlink:href="#path7_fill" transform="translate(-139.211 -18.6662)" fill="#FFCC33" style="mix-blend-mode:normal;"/>
</g>
<g id="Vector" style="mix-blend-mode:normal;" figma:type="vector">
<use xlink:href="#path8_fill" transform="translate(-133.563 -32.7886)" fill="#FFCC33" style="mix-blend-mode:normal;"/>
</g>
<g id="Vector" style="mix-blend-mode:normal;" figma:type="vector">
<use xlink:href="#path9_fill" transform="translate(-137.628 -43.5519)" fill="#FFCC33" style="mix-blend-mode:normal;"/>
</g>
<g id="Vector" style="mix-blend-mode:normal;" figma:type="vector">
<use xlink:href="#path10_fill" transform="translate(-147.115 -45)" fill="#FFCC33" style="mix-blend-mode:normal;"/>
</g>
<g id="Vector" style="mix-blend-mode:normal;" figma:type="vector">
<use xlink:href="#path11_fill" transform="translate(-195.702 -0.306679)" fill="#FFCC33" style="mix-blend-mode:normal;"/>
</g>
</g>
</g>
</g>
</g>
</g>
<defs>
<path id="path0_fill" fill-rule="evenodd" d="M 2.82453 31.0699L 76.2624 31.0699L 76.2624 2.82453L 2.82453 2.82453L 2.82453 31.0699ZM 77.6747 33.8944L 1.41227 33.8944C 0.631284 33.8944 0 33.2617 0 32.4822L 0 1.41227C 0 0.632695 0.631284 -1.22832e-06 1.41227 -1.22832e-06L 77.6747 -1.22832e-06C 78.4557 -1.22832e-06 79.087 0.632695 79.087 1.41227L 79.087 32.4822C 79.087 33.2617 78.4557 33.8944 77.6747 33.8944Z"/>
<path id="path1_fill" fill-rule="evenodd" d="M 2.82453 8.47361L 5.64907 8.47361L 5.64907 2.82454L 2.82453 2.82454L 2.82453 8.47361ZM 7.06134 11.2981L 1.41227 11.2981C 0.631284 11.2981 0 10.6654 0 9.88587L 0 1.41227C 0 0.632697 0.631284 1.46537e-06 1.41227 1.46537e-06L 7.06134 1.46537e-06C 7.84232 1.46537e-06 8.4736 0.632697 8.4736 1.41227L 8.4736 9.88587C 8.4736 10.6654 7.84232 11.2981 7.06134 11.2981Z"/>
<path id="path2_fill" fill-rule="evenodd" d="M 2.82453 5.64907L 81.9115 5.64907L 81.9115 2.82453L 2.82453 2.82453L 2.82453 5.64907ZM 83.3238 8.4736L 1.41227 8.4736C 0.631284 8.4736 0 7.84091 0 7.06134L 0 1.41227C 0 0.632695 0.631284 -1.22832e-06 1.41227 -1.22832e-06L 83.3238 -1.22832e-06C 84.1048 -1.22832e-06 84.736 0.632695 84.736 1.41227L 84.736 7.06134C 84.736 7.84091 84.1048 8.4736 83.3238 8.4736Z"/>
<path id="path3_fill" fill-rule="evenodd" d="M 4.2368 2.82453C 3.45723 2.82453 2.82453 3.45864 2.82453 4.2368C 2.82453 5.01496 3.45723 5.64907 4.2368 5.64907L 18.5685 5.64907C 18.4315 5.19997 18.3609 4.73109 18.3595 4.25092C 18.3581 3.76228 18.4315 3.28352 18.5713 2.82453L 4.2368 2.82453ZM 21.184 8.4736L 4.2368 8.4736C 1.90091 8.4736 0 6.57269 0 4.2368C 0 1.90091 1.90091 -1.22832e-06 4.2368 -1.22832e-06L 21.184 -1.22832e-06C 21.7786 -1.22832e-06 22.3096 0.37284 22.5115 0.932098C 22.7149 1.49136 22.544 2.1184 22.0879 2.4983C 21.5046 2.98412 21.1826 3.60411 21.184 4.24528C 21.1854 4.88221 21.5046 5.49513 22.0836 5.97248C 22.5426 6.35097 22.7149 6.97801 22.513 7.53868C 22.3124 8.09935 21.78 8.4736 21.184 8.4736Z"/>
<path id="path4_fill" fill-rule="evenodd" d="M 4.2368 2.82453C 3.45723 2.82453 2.82453 3.45864 2.82453 4.2368C 2.82453 5.01496 3.45723 5.64907 4.2368 5.64907L 18.5685 5.64907C 18.4315 5.19997 18.3609 4.73109 18.3595 4.25092C 18.3581 3.76228 18.4315 3.28352 18.5713 2.82453L 4.2368 2.82453ZM 21.184 8.4736L 4.2368 8.4736C 1.90091 8.4736 0 6.57269 0 4.2368C 0 1.90091 1.90091 1.18522e-07 4.2368 1.18522e-07L 21.184 1.18522e-07C 21.7786 1.18522e-07 22.3096 0.372838 22.5115 0.932096C 22.7149 1.49135 22.544 2.1184 22.0879 2.4983C 21.5046 2.98412 21.1826 3.60411 21.184 4.24528C 21.1854 4.88221 21.5046 5.49513 22.0836 5.97248C 22.5426 6.35097 22.7149 6.97801 22.513 7.53868C 22.3124 8.09935 21.78 8.4736 21.184 8.4736Z"/>
<path id="path5_fill" fill-rule="evenodd" d="M 2.96294 31.0402L 25.3022 31.0402L 23.39 7.41299C 23.2586 5.98378 22.3873 4.6393 20.9976 3.73545C 20.0782 3.13947 18.8862 2.82453 17.5531 2.82453L 11.4846 2.82453C 10.3265 2.82453 8.6459 3.04909 7.22233 4.11535C 6.00355 5.02767 5.27199 6.20409 5.16042 7.42853L 2.96294 31.0402ZM 26.8331 33.8648L 1.41227 33.8648C 1.01542 33.8648 0.636931 33.6967 0.368601 33.4029C 0.101682 33.1106 -0.0296587 32.7166 0.00564803 32.3211L 2.34577 7.16726C 2.53361 5.13924 3.66342 3.25245 5.52761 1.85431C 7.1489 0.641169 9.20798 -1.07747e-08 11.4846 -1.07747e-08L 17.5531 -1.07747e-08C 19.4342 -1.07747e-08 21.1572 0.471697 22.5341 1.36707C 24.6554 2.74545 25.9928 4.85961 26.2046 7.17008L 28.2411 32.3381C 28.2736 32.7321 28.1394 33.1205 27.8725 33.41C 27.6042 33.6995 27.2285 33.8648 26.8331 33.8648Z"/>
<path id="path6_fill" fill-rule="evenodd" d="M 40.9558 11.2981C 40.1748 11.2981 39.5435 10.6654 39.5435 9.88587C 39.5435 9.83221 39.5435 9.76018 39.4023 9.62601C 38.3911 8.65861 34.7799 8.36769 32.5471 8.47219L 32.5358 8.47219C 26.9743 8.47219 23.1781 7.34803 21.184 5.12936C 19.1899 7.34944 15.3881 8.47361 9.88587 8.47361C 7.58952 8.36769 3.97695 8.65861 2.96576 9.62601C 2.82454 9.76018 2.82453 9.83221 2.82453 9.88587C 2.82453 10.6654 2.19325 11.2981 1.41227 11.2981C 0.631284 11.2981 0 10.6654 0 9.88587C 0 9.01309 0.351655 8.21516 1.01683 7.58246C 3.24963 5.44853 8.85209 5.60105 9.95225 5.65048C 15.9727 5.64907 18.2493 4.15206 19.0642 3.26092C 19.567 2.71014 19.7223 2.1876 19.7661 1.87549C 19.7463 1.51395 19.7774 1.27104 19.7873 1.20467C 19.8904 0.512655 20.4849 1.46537e-06 21.184 1.46537e-06C 21.8831 1.46537e-06 22.4776 0.512655 22.5807 1.20467C 22.5906 1.27246 22.6231 1.52101 22.6005 1.8882C 22.6471 2.19043 22.8025 2.71296 23.3038 3.26092C 24.1187 4.15206 26.3953 5.64907 32.4821 5.64907C 33.5159 5.60105 39.1184 5.45135 41.3512 7.58246C 42.0164 8.21516 42.368 9.01309 42.368 9.88587C 42.368 10.6654 41.7367 11.2981 40.9558 11.2981Z"/>
<path id="path7_fill" fill-rule="evenodd" d="M 2.82453 5.64907L 11.2981 5.64907L 11.2981 4.29753C 11.2981 3.48548 10.6372 2.82453 9.82514 2.82453L 4.29753 2.82453C 3.48547 2.82453 2.82453 3.48548 2.82453 4.29753L 2.82453 5.64907ZM 12.7104 8.4736L 1.41227 8.4736C 0.631284 8.4736 0 7.84091 0 7.06134L 0 4.29753C 0 1.92775 1.92774 -1.22832e-06 4.29753 -1.22832e-06L 9.82514 -1.22832e-06C 12.1949 -1.22832e-06 14.1227 1.92775 14.1227 4.29753L 14.1227 7.06134C 14.1227 7.84091 13.4914 8.4736 12.7104 8.4736Z"/>
<path id="path8_fill" fill-rule="evenodd" d="M 1.41317 16.9477C 1.23805 16.9477 1.06011 16.9152 0.889223 16.846C 0.16473 16.5565 -0.188341 15.7346 0.101174 15.0101L 5.75024 0.887424C 6.03976 0.162931 6.86593 -0.187312 7.58619 0.100791C 8.31068 0.390306 8.66375 1.21225 8.37424 1.93674L 2.72517 16.0594C 2.50344 16.6116 1.97243 16.9477 1.41317 16.9477Z"/>
<path id="path9_fill" fill-rule="evenodd" d="M 11.127 13.5876C 10.7428 13.5876 10.3573 13.4309 10.0791 13.1216L 0.364084 2.3587C -0.158455 1.77967 -0.113265 0.887113 0.465765 0.364574C 1.04338 -0.157965 1.93735 -0.114185 2.45988 0.466257L 12.1749 11.2291C 12.6974 11.8082 12.6522 12.7007 12.0732 13.2233C 11.8034 13.4676 11.4645 13.5876 11.127 13.5876Z"/>
<path id="path10_fill" fill-rule="evenodd" d="M 3.40922 5.35673L 8.40299 10.3505L 9.9014 8.85209C 10.568 8.18409 10.9352 7.2986 10.9352 6.3552C 10.9352 5.41322 10.568 4.52632 9.9014 3.85831C 8.5654 2.52513 6.24363 2.52513 4.90904 3.85831L 3.40922 5.35673ZM 8.40299 13.7597C 8.04145 13.7597 7.67991 13.6213 7.40452 13.3459L 0.413794 6.3552C 0.148288 6.09111 5.94766e-07 5.73098 5.94766e-07 5.35673C 5.94766e-07 4.98107 0.148288 4.62235 0.413794 4.35684L 2.91068 1.86137C 4.11111 0.660941 5.70697 4.37724e-09 7.40452 4.37724e-09C 9.10206 4.37724e-09 10.6979 0.660941 11.8984 1.86137C 13.0988 3.0618 13.7597 4.65766 13.7597 6.3552C 13.7597 8.05275 13.0988 9.64861 11.8984 10.849L 9.40146 13.3459C 9.12607 13.6213 8.76453 13.7597 8.40299 13.7597Z"/>
<path id="path11_fill" fill-rule="evenodd" d="M 6.28459 2.82454C 4.37662 2.82454 2.82454 4.37662 2.82454 6.28459L 2.82454 13.4872C 2.82454 15.3951 4.37662 16.9472 6.28459 16.9472L 55.8552 16.9472C 57.7617 16.9472 59.3152 15.3951 59.3152 13.4872L 59.3152 6.28459C 59.3152 4.37662 57.7617 2.82454 55.8552 2.82454L 6.28459 2.82454ZM 55.8552 19.7717L 6.28459 19.7717C 2.81889 19.7717 3.83581e-07 16.9514 3.83581e-07 13.4872L 3.83581e-07 6.28459C 3.83581e-07 2.8203 2.81889 1.46537e-06 6.28459 1.46537e-06L 55.8552 1.46537e-06C 59.3209 1.46537e-06 62.1398 2.8203 62.1398 6.28459L 62.1398 13.4872C 62.1398 16.9514 59.3209 19.7717 55.8552 19.7717Z"/>
</defs>
</svg>
