<svg width="76" height="80" viewBox="0 0 76 80" version="1.1" xmlns="http://www.w3.org/2000/svg" xmlns:xlink="http://www.w3.org/1999/xlink" xmlns:figma="http://www.figma.com/figma/ns">
<title>wifi</title>
<desc>Created using Figma</desc>
<g id="Canvas" transform="translate(380 17)" figma:type="canvas">
<g id="wifi" style="mix-blend-mode:normal;" figma:type="frame">
<g id="Group" style="mix-blend-mode:normal;" figma:type="frame">
<g id="Vector" style="mix-blend-mode:normal;" figma:type="vector">
<use xlink:href="#path0_fill" transform="translate(-332.321 -3.63454)" fill="#FFCC33" style="mix-blend-mode:normal;"/>
</g>
<g id="Vector" style="mix-blend-mode:normal;" figma:type="vector">
<use xlink:href="#path1_fill" transform="translate(-361.494 -3.89157)" fill="#FFCC33" style="mix-blend-mode:normal;"/>
</g>
<g id="Vector" style="mix-blend-mode:normal;" figma:type="vector">
<use xlink:href="#path2_fill" transform="translate(-325.382 -10.5743)" fill="#FFCC33" style="mix-blend-mode:normal;"/>
</g>
<g id="Vector" style="mix-blend-mode:normal;" figma:type="vector">
<use xlink:href="#path3_fill" transform="translate(-371.068 -10.5743)" fill="#FFCC33" style="mix-blend-mode:normal;"/>
</g>
<g id="Vector" style="mix-blend-mode:normal;" figma:type="vector">
<use xlink:href="#path4_fill" transform="translate(-318.956 -17)" fill="#FFCC33" style="mix-blend-mode:normal;"/>
</g>
<g id="Vector" style="mix-blend-mode:normal;" figma:type="vector">
<use xlink:href="#path5_fill" transform="translate(-380 -17)" fill="#FFCC33" style="mix-blend-mode:normal;"/>
</g>
<g id="Vector" style="mix-blend-mode:normal;" figma:type="vector">
<use xlink:href="#path6_fill" transform="translate(-352.819 0.799198)" fill="#FFCC33" style="mix-blend-mode:normal;"/>
</g>
</g>
</g>
</g>
<defs>
<path id="path0_fill" d="M 3.40562 0.578314C 2.63454 -0.192771 1.3494 -0.192771 0.578314 0.578314C -0.19277 1.3494 -0.19277 2.63454 0.578314 3.40562C 6.48996 9.31727 6.48996 18.8273 0.578314 24.739C -0.19277 25.51 -0.19277 26.7952 0.578314 27.5663C 0.835342 27.8233 1.3494 28.0803 1.86345 28.0803C 2.37751 28.0803 2.89157 27.8233 3.1486 27.5663C 10.8594 19.8554 10.8594 7.7751 3.40562 0.578314Z"/>
<path id="path1_fill" d="M 8.41767 24.739C 2.50602 18.8273 2.50602 9.31727 8.41767 3.40562C 9.18876 2.63454 9.18876 1.3494 8.41767 0.578314C 7.64659 -0.192771 6.36144 -0.192771 5.59036 0.578314C -1.86345 8.03213 -1.86345 20.1124 5.59036 27.5663C 5.84739 27.8233 6.36144 28.0803 6.8755 28.0803C 7.38956 28.0803 7.90361 27.8233 8.16064 27.5663C 9.18875 26.7952 9.18876 25.51 8.41767 24.739Z"/>
<path id="path2_fill" d="M 3.40562 0.578313C 2.63454 -0.192771 1.3494 -0.192771 0.578311 0.578313C -0.192773 1.3494 -0.192773 2.63454 0.578311 3.40562C 10.3454 13.1727 10.3454 28.8514 0.578311 38.3614C -0.192773 39.1325 -0.192773 40.4177 0.578311 41.1888C 0.835339 41.4458 1.3494 41.7028 1.86345 41.7028C 2.37751 41.7028 2.89156 41.4458 3.14859 41.1888C 14.4578 29.8795 14.4578 11.6305 3.40562 0.578313Z"/>
<path id="path3_fill" d="M 4.11245 20.8835C 4.11245 14.2008 6.68273 8.03213 11.3092 3.40562C 12.0803 2.63454 12.0803 1.3494 11.3092 0.578313C 10.5382 -0.192771 9.25301 -0.192771 8.48193 0.578313C 3.08434 5.9759 4.90242e-07 13.1727 4.90242e-07 20.8835C 4.90242e-07 28.5944 3.08434 35.7912 8.48193 41.1888C 8.73896 41.4458 9.25301 41.7028 9.76707 41.7028C 10.2811 41.7028 10.7952 41.4458 11.0522 41.1888C 11.8233 40.4177 11.8233 39.1325 11.0522 38.3614C 6.68273 33.7349 4.11245 27.5663 4.11245 20.8835Z"/>
<path id="path4_fill" d="M 3.40562 0.578313C 2.63454 -0.192771 1.3494 -0.192771 0.578311 0.578313C -0.192773 1.3494 -0.192773 2.63454 0.578311 3.40562C 7.00401 9.83133 10.3454 18.3133 10.3454 27.3092C 10.3454 36.3052 6.74699 44.7871 0.578311 51.2128C -0.192773 51.9839 -0.192773 53.2691 0.578311 54.0402C 0.835339 54.2972 1.3494 54.5542 1.86345 54.5542C 2.37751 54.5542 2.89156 54.2972 3.14859 54.0402C 10.3454 46.8434 14.2008 37.5904 14.2008 27.3092C 14.2008 17.2851 10.3454 7.7751 3.40562 0.578313Z"/>
<path id="path5_fill" d="M 13.8153 3.40562C 14.5863 2.63454 14.5863 1.3494 13.8153 0.578313C 13.0442 -0.192771 11.759 -0.192771 10.988 0.578313C -3.66265 15.2289 -3.66265 39.1325 10.988 53.7831C 11.245 54.0402 11.759 54.2972 12.2731 54.2972C 12.7871 54.2972 13.3012 54.0402 13.5582 53.7831C 14.3293 53.012 14.3293 51.7269 13.5582 50.9558C 0.706828 37.8474 0.706828 16.5141 13.8153 3.40562Z"/>
<path id="path6_fill" d="M 19.0201 58.0884L 12.5944 58.0884L 12.5944 18.7631C 16.9639 17.7349 20.0482 14.1365 20.0482 9.51004C 20.0482 4.36948 15.9357 2.45121e-07 10.5382 2.45121e-07C 5.14056 2.45121e-07 1.02811 4.11245 1.02811 9.51004C 1.02811 14.1365 4.36948 17.7349 8.48193 18.7631L 8.48193 58.0884L 2.05622 58.0884C 1.02811 58.0884 -9.80485e-07 58.8594 -9.80485e-07 60.1446C -9.80485e-07 61.1727 0.771084 62.2008 2.05622 62.2008L 18.7631 62.2008C 19.7912 62.2008 20.8193 61.4297 20.8193 60.1446C 20.8193 58.8594 20.0482 58.0884 19.0201 58.0884Z"/>
</defs>
</svg>
