
<svg width="1398px" height="1848px" viewBox="-1 -1 1398 1848" version="1.1" xmlns="http://www.w3.org/2000/svg" xmlns:xlink="http://www.w3.org/1999/xlink">
    <!-- Generator: Sketch 3.8.3 (29802) - http://www.bohemiancoding.com/sketch -->
    <desc>Created with Sketch.</desc>
    <defs></defs>
    <path d="M0.144307692,0.922835864 L0.144307692,760.604465" id="Stroke-1" stroke="#C3C3C7" stroke-width="0.5" stroke-dasharray="3.310781195759773,4.404531195759773" fill="none"></path>
    <path d="M1018.63467,316.258068 L1237.65283,533.192795" id="Stroke-5" stroke="#C3C3C7" stroke-width="0.5" stroke-dasharray="3.247343860566616,4.341093860566616" fill="none"></path>
    <path d="M1242.93837,550.499644 L1242.93837,761.466787" id="Stroke-6" stroke="#C3C3C7" stroke-width="0.5" stroke-dasharray="3.391718827188015,4.485468566417694" fill="none"></path>
    <path d="M1242.93837,765.845294 L1242.93837,769.158008 M1240.67683,536.189402 L1242.93837,538.429916 L1242.93837,541.740494 M1007.10083,308.026475 L1010.32298,308.026475 L1012.58452,310.266989 M2.32298077,308.026475 L5.54513462,308.026475" id="Stroke-7" stroke="#C3C3C7" stroke-width="0.5" fill="none"></path>
    <path d="M354.830058,9.24570618 L805.772212,456.423685" id="Stroke-9" stroke="#C3C3C7" stroke-width="0.5" stroke-dasharray="3.244062587618828,4.337812587618828" fill="none"></path>
    <path d="M811.049135,473.756165 L811.049135,531.05053" id="Stroke-10" stroke="#C3C3C7" stroke-width="0.5" stroke-dasharray="3.401562385261059,4.49531264603138" fill="none"></path>
    <path d="M823.121442,538.760974 L1080.17221,538.760974" id="Stroke-11" stroke="#C3C3C7" stroke-width="0.5" stroke-dasharray="3.35781242698431,4.451562687754631" fill="none"></path>
    <path d="M738.752404,538.667561 L742.058558,538.667561 M465.24625,535.346303 L465.24625,538.667561 L468.552404,538.667561 M462.986865,459.322608 L465.24625,461.563122 L465.24625,464.88438 M0.72625,0.922835864 L2.98563462,3.16334989" id="Stroke-12" stroke="#C3C3C7" stroke-width="0.5" fill="none"></path>
    <path d="M157.602365,5.62970023 L157.602365,1528.06859" id="Stroke-15" stroke="#C3C3C7" stroke-width="0.5" stroke-dasharray="3.296562433242798,4.390312433242798" fill="none"></path>
    <path d="M79.8614423,1846.25576 L80.3999038,1846.25576 L80.3999038,1839.86741 L79.8614423,1839.86741 L79.8614423,1846.25576 L79.8614423,1846.25576 Z M79.8614423,1831.3432 L80.3999038,1831.3432 L80.3999038,1824.95486 L79.8614423,1824.95486 L79.8614423,1831.3432 L79.8614423,1831.3432 Z M79.8614423,1816.43065 L80.3999038,1816.43065 L80.3999038,1810.0423 L79.8614423,1810.0423 L79.8614423,1816.43065 L79.8614423,1816.43065 Z M79.8614423,1801.5181 L80.3999038,1801.5181 L80.3999038,1795.12975 L79.8614423,1795.12975 L79.8614423,1801.5181 L79.8614423,1801.5181 Z M79.8614423,1786.60768 L80.3999038,1786.60768 L80.3999038,1780.21933 L79.8614423,1780.21933 L79.8614423,1786.60768 L79.8614423,1786.60768 Z M79.8614423,1771.69512 L80.3999038,1771.69512 L80.3999038,1765.30678 L79.8614423,1765.30678 L79.8614423,1771.69512 L79.8614423,1771.69512 Z M79.8614423,1756.78257 L80.3999038,1756.78257 L80.3999038,1750.39422 L79.8614423,1750.39422 L79.8614423,1756.78257 L79.8614423,1756.78257 Z M79.8614423,1741.87002 L80.3999038,1741.87002 L80.3999038,1735.48167 L79.8614423,1735.48167 L79.8614423,1741.87002 L79.8614423,1741.87002 Z M79.8614423,1726.95746 L80.3999038,1726.95746 L80.3999038,1720.56912 L79.8614423,1720.56912 L79.8614423,1726.95746 L79.8614423,1726.95746 Z M79.8614423,1712.04491 L80.3999038,1712.04491 L80.3999038,1705.65656 L79.8614423,1705.65656 L79.8614423,1712.04491 L79.8614423,1712.04491 Z M79.8614423,1697.13236 L80.3999038,1697.13236 L80.3999038,1690.74401 L79.8614423,1690.74401 L79.8614423,1697.13236 L79.8614423,1697.13236 Z M79.8614423,1682.2198 L80.3999038,1682.2198 L80.3999038,1675.83145 L79.8614423,1675.83145 L79.8614423,1682.2198 L79.8614423,1682.2198 Z M79.8614423,1667.30725 L80.3999038,1667.30725 L80.3999038,1660.9189 L79.8614423,1660.9189 L79.8614423,1667.30725 L79.8614423,1667.30725 Z M79.8614423,1652.39469 L80.3999038,1652.39469 L80.3999038,1646.00635 L79.8614423,1646.00635 L79.8614423,1652.39469 L79.8614423,1652.39469 Z M79.8614423,1637.48214 L80.3999038,1637.48214 L80.3999038,1631.09379 L79.8614423,1631.09379 L79.8614423,1637.48214 L79.8614423,1637.48214 Z M79.8614423,1622.56959 L80.3999038,1622.56959 L80.3999038,1616.18124 L79.8614423,1616.18124 L79.8614423,1622.56959 L79.8614423,1622.56959 Z M79.8614423,1607.65703 L80.3999038,1607.65703 L80.3999038,1601.26868 L79.8614423,1601.26868 L79.8614423,1607.65703 L79.8614423,1607.65703 Z M79.8614423,1592.74448 L80.3999038,1592.74448 L80.3999038,1586.35613 L79.8614423,1586.35613 L79.8614423,1592.74448 L79.8614423,1592.74448 Z M79.8614423,1577.83193 L80.3999038,1577.83193 L80.3999038,1571.44358 L79.8614423,1571.44358 L79.8614423,1577.83193 L79.8614423,1577.83193 Z M79.8614423,1562.91937 L80.3999038,1562.91937 L80.3999038,1556.53102 L79.8614423,1556.53102 L79.8614423,1562.91937 L79.8614423,1562.91937 Z M79.8614423,1548.00682 L80.3999038,1548.00682 L80.3999038,1541.61847 L79.8614423,1541.61847 L79.8614423,1548.00682 L79.8614423,1548.00682 Z M79.8614423,1533.09426 L80.3999038,1533.09426 L80.3999038,1526.70592 L79.8614423,1526.70592 L79.8614423,1533.09426 L79.8614423,1533.09426 Z M79.8614423,1518.18171 L80.3999038,1518.18171 L80.3999038,1511.79336 L79.8614423,1511.79336 L79.8614423,1518.18171 L79.8614423,1518.18171 Z M79.8614423,1503.26916 L80.3999038,1503.26916 L80.3999038,1496.88081 L79.8614423,1496.88081 L79.8614423,1503.26916 L79.8614423,1503.26916 Z M79.8614423,1488.3566 L80.3999038,1488.3566 L80.3999038,1481.96825 L79.8614423,1481.96825 L79.8614423,1488.3566 L79.8614423,1488.3566 Z M79.8614423,1473.44405 L80.3999038,1473.44405 L80.3999038,1467.0557 L79.8614423,1467.0557 L79.8614423,1473.44405 L79.8614423,1473.44405 Z M79.8614423,1458.5315 L80.3999038,1458.5315 L80.3999038,1452.14315 L79.8614423,1452.14315 L79.8614423,1458.5315 L79.8614423,1458.5315 Z M79.8614423,1443.61894 L80.3999038,1443.61894 L80.3999038,1437.23059 L79.8614423,1437.23059 L79.8614423,1443.61894 L79.8614423,1443.61894 Z M79.8614423,1428.70852 L80.3999038,1428.70852 L80.3999038,1422.32017 L79.8614423,1422.32017 L79.8614423,1428.70852 L79.8614423,1428.70852 Z M79.8614423,1413.79383 L80.3999038,1413.79383 L80.3999038,1407.40549 L79.8614423,1407.40549 L79.8614423,1413.79383 L79.8614423,1413.79383 Z M79.8614423,1398.88128 L80.3999038,1398.88128 L80.3999038,1392.49293 L79.8614423,1392.49293 L79.8614423,1398.88128 L79.8614423,1398.88128 Z M79.8614423,1383.97086 L80.3999038,1383.97086 L80.3999038,1377.58251 L79.8614423,1377.58251 L79.8614423,1383.97086 L79.8614423,1383.97086 Z M79.8614423,1369.05617 L80.3999038,1369.05617 L80.3999038,1362.66782 L79.8614423,1362.66782 L79.8614423,1369.05617 L79.8614423,1369.05617 Z M79.8614423,1354.14575 L80.3999038,1354.14575 L80.3999038,1347.75741 L79.8614423,1347.75741 L79.8614423,1354.14575 L79.8614423,1354.14575 Z M79.8614423,1339.2332 L80.3999038,1339.2332 L80.3999038,1332.84485 L79.8614423,1332.84485 L79.8614423,1339.2332 L79.8614423,1339.2332 Z M79.8614423,1324.32065 L80.3999038,1324.32065 L80.3999038,1317.9323 L79.8614423,1317.9323 L79.8614423,1324.32065 L79.8614423,1324.32065 Z M79.8614423,1309.40809 L80.3999038,1309.40809 L80.3999038,1303.01974 L79.8614423,1303.01974 L79.8614423,1309.40809 L79.8614423,1309.40809 Z M79.8614423,1294.49554 L80.3999038,1294.49554 L80.3999038,1288.10719 L79.8614423,1288.10719 L79.8614423,1294.49554 L79.8614423,1294.49554 Z M79.8614423,1279.58299 L80.3999038,1279.58299 L80.3999038,1273.19464 L79.8614423,1273.19464 L79.8614423,1279.58299 L79.8614423,1279.58299 Z M79.8614423,1264.67043 L80.3999038,1264.67043 L80.3999038,1258.28208 L79.8614423,1258.28208 L79.8614423,1264.67043 L79.8614423,1264.67043 Z M79.8614423,1249.75788 L80.3999038,1249.75788 L80.3999038,1243.36953 L79.8614423,1243.36953 L79.8614423,1249.75788 L79.8614423,1249.75788 Z M79.8614423,1234.84532 L80.3999038,1234.84532 L80.3999038,1228.45698 L79.8614423,1228.45698 L79.8614423,1234.84532 L79.8614423,1234.84532 Z M79.8614423,1219.93277 L80.3999038,1219.93277 L80.3999038,1213.54442 L79.8614423,1213.54442 L79.8614423,1219.93277 L79.8614423,1219.93277 Z M79.8614423,1205.02022 L80.3999038,1205.02022 L80.3999038,1198.63187 L79.8614423,1198.63187 L79.8614423,1205.02022 L79.8614423,1205.02022 Z M79.8614423,1190.10766 L80.3999038,1190.10766 L80.3999038,1183.71931 L79.8614423,1183.71931 L79.8614423,1190.10766 L79.8614423,1190.10766 Z M79.8614423,1175.19511 L80.3999038,1175.19511 L80.3999038,1168.80676 L79.8614423,1168.80676 L79.8614423,1175.19511 L79.8614423,1175.19511 Z M79.8614423,1160.28256 L80.3999038,1160.28256 L80.3999038,1153.89421 L79.8614423,1153.89421 L79.8614423,1160.28256 L79.8614423,1160.28256 Z M79.8614423,1145.37 L80.3999038,1145.37 L80.3999038,1138.98165 L79.8614423,1138.98165 L79.8614423,1145.37 L79.8614423,1145.37 Z M79.8614423,1130.45745 L80.3999038,1130.45745 L80.3999038,1124.0691 L79.8614423,1124.0691 L79.8614423,1130.45745 L79.8614423,1130.45745 Z M79.8614423,1115.54489 L80.3999038,1115.54489 L80.3999038,1109.15655 L79.8614423,1109.15655 L79.8614423,1115.54489 L79.8614423,1115.54489 Z M79.8614423,1100.63234 L80.3999038,1100.63234 L80.3999038,1094.24399 L79.8614423,1094.24399 L79.8614423,1100.63234 L79.8614423,1100.63234 Z M79.8614423,1085.71979 L80.3999038,1085.71979 L80.3999038,1079.33144 L79.8614423,1079.33144 L79.8614423,1085.71979 L79.8614423,1085.71979 Z M79.8614423,1070.80937 L80.3999038,1070.80937 L80.3999038,1064.42102 L79.8614423,1064.42102 L79.8614423,1070.80937 L79.8614423,1070.80937 Z M79.8614423,1055.89468 L80.3999038,1055.89468 L80.3999038,1049.50633 L79.8614423,1049.50633 L79.8614423,1055.89468 L79.8614423,1055.89468 Z M79.8614423,1040.98212 L80.3999038,1040.98212 L80.3999038,1034.59378 L79.8614423,1034.59378 L79.8614423,1040.98212 L79.8614423,1040.98212 Z M79.8614423,1026.07171 L80.3999038,1026.07171 L80.3999038,1019.68336 L79.8614423,1019.68336 L79.8614423,1026.07171 L79.8614423,1026.07171 Z M79.8614423,1011.15702 L80.3999038,1011.15702 L80.3999038,1004.76867 L79.8614423,1004.76867 L79.8614423,1011.15702 L79.8614423,1011.15702 Z M79.8614423,996.246599 L80.3999038,996.246599 L80.3999038,989.858251 L79.8614423,989.858251 L79.8614423,996.246599 L79.8614423,996.246599 Z M79.8614423,981.334045 L80.3999038,981.334045 L80.3999038,974.945697 L79.8614423,974.945697 L79.8614423,981.334045 L79.8614423,981.334045 Z M79.8614423,966.421492 L80.3999038,966.421492 L80.3999038,960.033143 L79.8614423,960.033143 L79.8614423,966.421492 L79.8614423,966.421492 Z M79.8614423,951.508938 L80.3999038,951.508938 L80.3999038,945.120589 L79.8614423,945.120589 L79.8614423,951.508938 L79.8614423,951.508938 Z M79.8614423,936.596384 L80.3999038,936.596384 L80.3999038,930.208036 L79.8614423,930.208036 L79.8614423,936.596384 L79.8614423,936.596384 Z M79.8614423,921.68383 L80.3999038,921.68383 L80.3999038,915.295482 L79.8614423,915.295482 L79.8614423,921.68383 L79.8614423,921.68383 Z M79.8614423,906.771276 L80.3999038,906.771276 L80.3999038,900.382928 L79.8614423,900.382928 L79.8614423,906.771276 L79.8614423,906.771276 Z M79.8614423,891.858723 L80.3999038,891.858723 L80.3999038,885.470374 L79.8614423,885.470374 L79.8614423,891.858723 L79.8614423,891.858723 Z M79.8614423,876.946169 L80.3999038,876.946169 L80.3999038,870.55782 L79.8614423,870.55782 L79.8614423,876.946169 L79.8614423,876.946169 Z M79.8614423,862.033615 L80.3999038,862.033615 L80.3999038,855.645267 L79.8614423,855.645267 L79.8614423,862.033615 L79.8614423,862.033615 Z M79.8614423,847.121061 L80.3999038,847.121061 L80.3999038,840.732713 L79.8614423,840.732713 L79.8614423,847.121061 L79.8614423,847.121061 Z M79.8614423,832.208507 L80.3999038,832.208507 L80.3999038,825.820159 L79.8614423,825.820159 L79.8614423,832.208507 L79.8614423,832.208507 Z M79.8614423,817.295954 L80.3999038,817.295954 L80.3999038,810.907605 L79.8614423,810.907605 L79.8614423,817.295954 L79.8614423,817.295954 Z M79.8614423,802.3834 L80.3999038,802.3834 L80.3999038,795.995051 L79.8614423,795.995051 L79.8614423,802.3834 L79.8614423,802.3834 Z M79.8614423,787.470846 L80.3999038,787.470846 L80.3999038,781.082498 L79.8614423,781.082498 L79.8614423,787.470846 L79.8614423,787.470846 Z M79.8614423,772.558292 L80.3999038,772.558292 L80.3999038,766.169944 L79.8614423,766.169944 L79.8614423,772.558292 L79.8614423,772.558292 Z M79.8614423,757.645738 L80.3999038,757.645738 L80.3999038,751.25739 L79.8614423,751.25739 L79.8614423,757.645738 L79.8614423,757.645738 Z M79.8614423,742.733185 L80.3999038,742.733185 L80.3999038,736.344836 L79.8614423,736.344836 L79.8614423,742.733185 L79.8614423,742.733185 Z M79.8614423,727.820631 L80.3999038,727.820631 L80.3999038,721.432282 L79.8614423,721.432282 L79.8614423,727.820631 L79.8614423,727.820631 Z M79.8614423,712.908077 L80.3999038,712.908077 L80.3999038,706.519729 L79.8614423,706.519729 L79.8614423,712.908077 L79.8614423,712.908077 Z M79.8614423,697.995523 L80.3999038,697.995523 L80.3999038,691.607175 L79.8614423,691.607175 L79.8614423,697.995523 L79.8614423,697.995523 Z M79.8614423,683.082969 L80.3999038,683.082969 L80.3999038,676.694621 L79.8614423,676.694621 L79.8614423,683.082969 L79.8614423,683.082969 Z M79.8614423,668.170416 L80.3999038,668.170416 L80.3999038,661.782067 L79.8614423,661.782067 L79.8614423,668.170416 L79.8614423,668.170416 Z M79.8614423,653.257862 L80.3999038,653.257862 L80.3999038,646.869513 L79.8614423,646.869513 L79.8614423,653.257862 L79.8614423,653.257862 Z M79.8614423,638.345308 L80.3999038,638.345308 L80.3999038,631.95696 L79.8614423,631.95696 L79.8614423,638.345308 L79.8614423,638.345308 Z M79.8614423,623.432754 L80.3999038,623.432754 L80.3999038,617.044406 L79.8614423,617.044406 L79.8614423,623.432754 L79.8614423,623.432754 Z M79.8614423,608.5202 L80.3999038,608.5202 L80.3999038,602.131852 L79.8614423,602.131852 L79.8614423,608.5202 L79.8614423,608.5202 Z M79.8614423,593.607647 L80.3999038,593.607647 L80.3999038,587.219298 L79.8614423,587.219298 L79.8614423,593.607647 L79.8614423,593.607647 Z M79.8614423,578.695093 L80.3999038,578.695093 L80.3999038,572.306744 L79.8614423,572.306744 L79.8614423,578.695093 L79.8614423,578.695093 Z M79.8614423,563.782539 L80.3999038,563.782539 L80.3999038,557.394191 L79.8614423,557.394191 L79.8614423,563.782539 L79.8614423,563.782539 Z M79.8614423,548.869985 L80.3999038,548.869985 L80.3999038,542.481637 L79.8614423,542.481637 L79.8614423,548.869985 L79.8614423,548.869985 Z M79.8614423,533.957431 L80.3999038,533.957431 L80.3999038,527.569083 L79.8614423,527.569083 L79.8614423,533.957431 L79.8614423,533.957431 Z M79.8614423,519.044878 L80.3999038,519.044878 L80.3999038,512.656529 L79.8614423,512.656529 L79.8614423,519.044878 L79.8614423,519.044878 Z M79.8614423,504.132324 L80.3999038,504.132324 L80.3999038,497.743975 L79.8614423,497.743975 L79.8614423,504.132324 L79.8614423,504.132324 Z M79.8614423,489.21977 L80.3999038,489.21977 L80.3999038,482.831422 L79.8614423,482.831422 L79.8614423,489.21977 L79.8614423,489.21977 Z M79.8614423,474.307216 L80.3999038,474.307216 L80.3999038,467.918868 L79.8614423,467.918868 L79.8614423,474.307216 L79.8614423,474.307216 Z M79.8614423,459.394662 L80.3999038,459.394662 L80.3999038,453.006314 L79.8614423,453.006314 L79.8614423,459.394662 L79.8614423,459.394662 Z M79.8614423,444.482109 L80.3999038,444.482109 L80.3999038,438.09376 L79.8614423,438.09376 L79.8614423,444.482109 L79.8614423,444.482109 Z M79.8614423,429.569555 L80.3999038,429.569555 L80.3999038,423.181207 L79.8614423,423.181207 L79.8614423,429.569555 L79.8614423,429.569555 Z M79.8614423,414.657001 L80.3999038,414.657001 L80.3999038,408.268653 L79.8614423,408.268653 L79.8614423,414.657001 L79.8614423,414.657001 Z M79.8614423,399.744447 L80.3999038,399.744447 L80.3999038,393.356099 L79.8614423,393.356099 L79.8614423,399.744447 L79.8614423,399.744447 Z M79.8614423,384.831894 L80.3999038,384.831894 L80.3999038,378.443545 L79.8614423,378.443545 L79.8614423,384.831894 L79.8614423,384.831894 Z M79.8614423,369.91934 L80.3999038,369.91934 L80.3999038,363.530991 L79.8614423,363.530991 L79.8614423,369.91934 L79.8614423,369.91934 Z M79.8614423,355.006786 L80.3999038,355.006786 L80.3999038,348.618438 L79.8614423,348.618438 L79.8614423,355.006786 L79.8614423,355.006786 Z M79.8614423,340.094232 L80.3999038,340.094232 L80.3999038,333.705884 L79.8614423,333.705884 L79.8614423,340.094232 L79.8614423,340.094232 Z M79.8614423,325.181678 L80.3999038,325.181678 L80.3999038,318.79333 L79.8614423,318.79333 L79.8614423,325.181678 L79.8614423,325.181678 Z M79.8614423,310.269125 L80.3999038,310.269125 L80.3999038,303.880776 L79.8614423,303.880776 L79.8614423,310.269125 L79.8614423,310.269125 Z M79.8614423,295.356571 L80.3999038,295.356571 L80.3999038,288.968222 L79.8614423,288.968222 L79.8614423,295.356571 L79.8614423,295.356571 Z M79.8614423,280.444017 L80.3999038,280.444017 L80.3999038,274.055669 L79.8614423,274.055669 L79.8614423,280.444017 L79.8614423,280.444017 Z M79.8614423,265.531463 L80.3999038,265.531463 L80.3999038,259.143115 L79.8614423,259.143115 L79.8614423,265.531463 L79.8614423,265.531463 Z M79.8614423,250.618909 L80.3999038,250.618909 L80.3999038,244.230561 L79.8614423,244.230561 L79.8614423,250.618909 L79.8614423,250.618909 Z M79.8614423,235.706356 L80.3999038,235.706356 L80.3999038,229.318007 L79.8614423,229.318007 L79.8614423,235.706356 L79.8614423,235.706356 Z M79.8614423,220.793802 L80.3999038,220.793802 L80.3999038,214.405453 L79.8614423,214.405453 L79.8614423,220.793802 L79.8614423,220.793802 Z M79.8614423,205.881248 L80.3999038,205.881248 L80.3999038,199.4929 L79.8614423,199.4929 L79.8614423,205.881248 L79.8614423,205.881248 Z M79.8614423,190.968694 L80.3999038,190.968694 L80.3999038,184.580346 L79.8614423,184.580346 L79.8614423,190.968694 L79.8614423,190.968694 Z M79.8614423,176.05614 L80.3999038,176.05614 L80.3999038,169.667792 L79.8614423,169.667792 L79.8614423,176.05614 L79.8614423,176.05614 Z M79.8614423,161.143587 L80.3999038,161.143587 L80.3999038,154.755238 L79.8614423,154.755238 L79.8614423,161.143587 L79.8614423,161.143587 Z M79.8614423,146.231033 L80.3999038,146.231033 L80.3999038,139.842684 L79.8614423,139.842684 L79.8614423,146.231033 L79.8614423,146.231033 Z M79.8614423,131.318479 L80.3999038,131.318479 L80.3999038,124.930131 L79.8614423,124.930131 L79.8614423,131.318479 L79.8614423,131.318479 Z M79.8614423,116.405925 L80.3999038,116.405925 L80.3999038,110.017577 L79.8614423,110.017577 L79.8614423,116.405925 L79.8614423,116.405925 Z M79.8614423,101.493371 L80.3999038,101.493371 L80.3999038,95.105023 L79.8614423,95.105023 L79.8614423,101.493371 L79.8614423,101.493371 Z M79.8614423,86.5808176 L80.3999038,86.5808176 L80.3999038,80.1924692 L79.8614423,80.1924692 L79.8614423,86.5808176 L79.8614423,86.5808176 Z M79.8614423,71.6682638 L80.3999038,71.6682638 L80.3999038,65.2799154 L79.8614423,65.2799154 L79.8614423,71.6682638 L79.8614423,71.6682638 Z M79.8614423,56.75571 L80.3999038,56.75571 L80.3999038,50.3673616 L79.8614423,50.3673616 L79.8614423,56.75571 L79.8614423,56.75571 Z M79.8614423,41.8431562 L80.3999038,41.8431562 L80.3999038,35.4548078 L79.8614423,35.4548078 L79.8614423,41.8431562 L79.8614423,41.8431562 Z M79.8614423,26.9306024 L80.3999038,26.9306024 L80.3999038,20.542254 L79.8614423,20.542254 L79.8614423,26.9306024 L79.8614423,26.9306024 Z M79.8614423,12.0180486 L80.3999038,12.0180486 L80.3999038,5.62970023 L79.8614423,5.62970023 L79.8614423,12.0180486 L79.8614423,12.0180486 Z" id="Fill-16" stroke="none" fill="#B2B2BA" fill-rule="evenodd"></path>
    <path d="M0.695692308,0.776708 L1085.61385,0.776708" id="Stroke-17" stroke="#C3C3C7" stroke-width="0.5" stroke-dasharray="3.256093747913837,4.349843747913837" fill="none"></path>
    <path d="M649.883288,311.954316 L649.883288,966.722647" id="Stroke-21" stroke="#C3C3C7" stroke-width="0.5" stroke-dasharray="3.287812545895576,4.381562545895576" fill="none"></path>
    <path d="M649.898365,985.708281 C650.012519,1021.54796 651.070058,1027.4771 660.428519,1037.42379" id="Stroke-22" stroke="#C3C3C7" stroke-width="0.5" stroke-dasharray="3.194843754172325,4.288593754172325" fill="none"></path>
    <path d="M674.004212,1050.99289 C733.424519,1109.91691 1074.18237,1447.82872 1121.11467,1494.36904" id="Stroke-23" stroke="#C3C3C7" stroke-width="0.5" stroke-dasharray="3.302031308412552,4.395781308412552" fill="none"></path>
    <path d="M1124.17529,1497.40409 C1125.68513,1498.90133 1126.47344,1499.68305 1126.47344,1499.68305 M663.364212,1040.43535 C664.066365,1041.13804 664.807288,1041.87278 665.584827,1042.64382 C666.01775,1043.07313 666.788827,1043.83777 667.882981,1044.92278 M649.883288,971.000769 L649.883288,974.210962 L649.883288,977.331449 M649.883288,300.185743 L649.883288,303.395937" id="Stroke-24" stroke="#C3C3C7" stroke-width="0.5" fill="none"></path>
    <path d="M390.284519,166.414882 L390.284519,577.415573" id="Stroke-25" stroke="#C3C3C7" stroke-width="0.5" stroke-dasharray="3.236406370997429,4.330156370997429" fill="none"></path>
    <path d="M390.284519,580.333295 L390.284519,1235.10163" id="Stroke-26" stroke="#C3C3C7" stroke-width="0.5" stroke-dasharray="3.287812545895576,4.381562545895576" fill="none"></path>
    <path d="M942.707288,1843.63933 L944.968827,1845.88198 L945.350058,1845.50394 L943.088519,1843.26129 L942.707288,1843.63933 L942.707288,1843.63933 L942.707288,1843.63933 Z M403.640519,1309.01082 C404.950058,1310.63407 405.811596,1311.22784 405.833135,1311.24279 L405.986058,1311.02494 L405.796519,1311.21289 L408.058058,1313.45554 L408.439288,1313.0775 L406.158365,1310.81776 L406.138981,1310.80494 L406.003288,1310.70029 C405.721135,1310.47602 405.018981,1309.86517 404.060519,1308.67549 L403.640519,1309.01082 L403.640519,1309.01082 L403.640519,1309.01082 Z M390.015288,1239.37975 L390.015288,1242.59208 C390.015288,1243.62156 390.019596,1244.63823 390.030365,1245.63995 L390.568827,1245.63354 C390.558058,1244.63609 390.55375,1243.61942 390.55375,1242.59208 L390.55375,1239.37975 L390.015288,1239.37975 L390.015288,1239.37975 L390.015288,1239.37975 Z M390.015288,157.959024 L390.55375,157.959024 L390.55375,154.797955 L390.015288,154.797955 L390.015288,157.959024 L390.015288,157.959024 Z" id="Fill-29" stroke="none" fill="#B2B2BA" fill-rule="evenodd"></path>
    <path d="M1087.90237,538.547388 L1087.90237,646.194583" id="Stroke-30" stroke="#C3C3C7" stroke-width="0.5" stroke-dasharray="3.164218626916409,4.257968626916409" fill="none"></path>
    <path d="M10.9340577,1716.81855 L1138.20329,598.992142" id="Stroke-31" stroke="#C3C3C7" stroke-width="0.5" stroke-dasharray="3.282343670725822,4.376093670725822" fill="none"></path>
    <path d="M1151.49467,601.619246 L1199.11621,648.964789" id="Stroke-32" stroke="#C3C3C7" stroke-width="0.5" stroke-dasharray="3.086562529206276,4.180312529206276" fill="none"></path>
    <path d="M1195.99529,662.110989 L1032.70144,824.393407" id="Stroke-33" stroke="#C3C3C7" stroke-width="0.5" stroke-dasharray="3.188281208276749,4.282031208276749" fill="none"></path>
    <path d="M1029.72483,827.353704 L1027.50637,829.557909 M1202.0239,651.852468 L1204.17129,653.986189 L1201.95283,656.190394 M1141.25098,595.969905 L1143.53621,593.70376 L1145.68144,595.837481 M2.55559615,1725.12703 L4.84082692,1722.86089" id="Stroke-34" stroke="#C3C3C7" stroke-width="0.5" fill="none"></path>
    <path d="M1094.8399,655.998166 L1209.01529,769.219948" id="Stroke-36" stroke="#C3C3C7" stroke-width="0.5" stroke-dasharray="3.384062610566616,4.477812349796295" fill="none"></path>
    <path d="M0.0753846154,577.112987 L618.832308,577.112987" id="Stroke-37" stroke="#C3C3C7" stroke-width="0.5" stroke-dasharray="3.24515625834465,4.33890625834465" fill="none"></path>
    <path d="M1201.71262,0.922835864 L0.577230769,1192.02623" id="Stroke-39" stroke="#C3C3C7" stroke-width="0.5" stroke-dasharray="3.288906216621399,4.382656216621399" fill="none"></path>
    <path d="M14.0851346,755.49493 L907.65775,755.49493" id="Stroke-41" stroke="#C3C3C7" stroke-width="0.5" stroke-dasharray="3.252812474966049,4.346562474966049" fill="none"></path>
    <path d="M926.385442,755.512017 C947.826981,755.640169 952.662365,756.723048 962.354673,765.71287" id="Stroke-42" stroke="#C3C3C7" stroke-width="0.5" stroke-dasharray="3.077812381088734,4.171562381088734" fill="none"></path>
    <path d="M973.740923,24.021984 C997.937231,48.0140661 1060.47846,110.032947 1079.29015,128.689658" id="Stroke-43" stroke="#C3C3C7" stroke-width="0.5" stroke-dasharray="3.354531154036522,4.448281154036522" fill="none"></path>
    <path d="M1082.38738,131.76102 C1083.89938,133.258256 1084.72215,134.076289 1084.72215,134.076289 M963.062154,13.44522 C963.749231,14.118015 964.464308,14.8228478 965.211692,15.5639902 C965.788923,16.1363999 966.572923,16.9138518 967.546462,17.8792592 M909.689846,0.401541122 L912.892615,0.401541122 L915.923077,0.401541122 M0.0753846154,0.401541122 L3.27815385,0.401541122" id="Stroke-45" stroke="#C3C3C7" stroke-width="0.5" fill="none"></path>
    <path d="M1053.24052,701.940451 L1165.2836,813.047734" id="Stroke-47" stroke="#C3C3C7" stroke-width="0.5" stroke-dasharray="3.310781195759773,4.404531195759773" fill="none"></path>
    <path d="M1027.12503,829.994012 L202.049135,1648.12084" id="Stroke-48" stroke="#C3C3C7" stroke-width="0.5" stroke-dasharray="3.277968727052212,4.371718727052212" fill="none"></path>
    <path d="M1062.64294,871.543713 L240.740827,1686.58122" id="Stroke-51" stroke="#C3C3C7" stroke-width="0.5" stroke-dasharray="3.265937566757202,4.359687566757202" fill="none"></path>
    <path d="M2.32298077,1036.83856 L657.05775,1036.83856" id="Stroke-54" stroke="#C3C3C7" stroke-width="0.5" stroke-dasharray="3.28125,4.375" fill="none"></path>
    <path d="M234.938365,923.268636 L774.295904,923.268636" id="Stroke-56" stroke="#C3C3C7" stroke-width="0.5" stroke-dasharray="3.318437412381172,4.412187412381172" fill="none"></path>
    <path d="M177.508212,846.110801 L165.659904,846.110801" id="Stroke-57" stroke="#C3C3C7" stroke-width="0.5" stroke-dasharray="3.646562620997429,4.740312620997429" fill="none"></path>
    <path d="M169.24175,846.110801 L812.82175,846.110801" id="Stroke-58" stroke="#C3C3C7" stroke-width="0.5" stroke-dasharray="3.279062397778034,4.372812397778034" fill="none"></path>
    <path d="M831.071288,846.140703 C851.868827,846.320115 856.135596,847.563184 865.145135,856.059623" id="Stroke-59" stroke="#C3C3C7" stroke-width="0.5" stroke-dasharray="2.898437604308128,3.992187604308128" fill="none"></path>
    <path d="M879.022365,869.748331 C882.050673,872.751346 884.941135,875.617666 887.303904,877.960701" id="Stroke-60" stroke="#C3C3C7" stroke-width="0.5" stroke-dasharray="3.600625060498714,4.694374799728394" fill="none"></path>
    <path d="M901.44175,891.982602 L1121.95683,1110.65592" id="Stroke-61" stroke="#C3C3C7" stroke-width="0.5" stroke-dasharray="3.275781124830246,4.369531124830246" fill="none"></path>
    <path d="M1125.00021,1113.67175 L1127.27898,1115.93362 M890.569135,881.200796 L893.076212,883.686934 L895.357135,885.948806 M867.958058,858.782841 C868.602058,859.41719 869.274058,860.081442 869.978365,860.782003 C870.796827,861.593628 871.634673,862.424477 872.485442,863.266004 M817.125135,846.110801 L820.35375,846.110801 L823.207596,846.110801 M160.992519,846.110801 L157.402058,846.110801 L160.630673,846.110801 M190.431288,846.110801 L186.840827,846.110801" id="Stroke-62" stroke="#C3C3C7" stroke-width="0.5" fill="none"></path>
    <path d="M235.130058,923.518531 L157.591596,846.627678" id="Stroke-63" stroke="#C3C3C7" stroke-width="0.5" stroke-dasharray="3.201406300067902,4.295156300067902" fill="none"></path>
    <path d="M0.950384615,0.218003044 L189.950385,187.639458" id="Stroke-64" stroke="#C3C3C7" stroke-width="0.5" stroke-dasharray="3.346874937415123,4.440624937415123" fill="none"></path>
    <path d="M1208.82144,769.911965 L1166.0956,812.280961" id="Stroke-68" stroke="#C3C3C7" stroke-width="0.5" stroke-dasharray="2.923593856394291,4.017343856394291" fill="none"></path>
    <path d="M1084.90394,893.224409 L270.543327,1700.78341" id="Stroke-69" stroke="#C3C3C7" stroke-width="0.5" stroke-dasharray="3.264843635261059,4.358593635261059" fill="none"></path>
    <path d="M1107.24606,827.368655 L1068.96144,865.333514" id="Stroke-77" stroke="#C3C3C7" stroke-width="0.5" stroke-dasharray="3.459531366825104,4.553281366825104" fill="none"></path>
    <path d="M777.707596,12.8360819 L777.707596,896.256452" id="Stroke-82" stroke="#C3C3C7" stroke-width="0.5" stroke-dasharray="3.30531258136034,4.399062320590019" fill="none"></path>
    <path d="M777.722673,915.274123 C777.843288,951.118076 778.933135,957.083525 788.252827,966.993901" id="Stroke-83" stroke="#C3C3C7" stroke-width="0.5" stroke-dasharray="3.194843754172325,4.288593754172325" fill="none"></path>
    <path d="M801.70575,980.439121 C858.453135,1036.71255 1173.53498,1349.1628 1220.79898,1396.03205" id="Stroke-84" stroke="#C3C3C7" stroke-width="0.5" stroke-dasharray="3.241874985396862,4.335624985396862" fill="none"></path>
    <path d="M467.702365,618.296018 L467.702365,689.958293" id="Stroke-90" stroke="#C3C3C7" stroke-width="0.5" stroke-dasharray="3.591874912381172,4.685624912381172" fill="none"></path>
    <path d="M1165.32452,813.043462 L1087.86144,889.85956" id="Stroke-117" stroke="#C3C3C7" stroke-width="0.5" stroke-dasharray="3.198125027120113,4.291875027120113" fill="none"></path>
    <path d="M545.227904,308.579662 L545.227904,384.701606" id="Stroke-118" stroke="#C3C3C7" stroke-width="0.5" stroke-dasharray="3.046093843877316,4.139843843877316" fill="none"></path>
    <path d="M951.238673,692.27997 C974.123288,692.549088 977.239904,694.176611 986.027596,702.927217" id="Stroke-119" stroke="#C3C3C7" stroke-width="0.5" stroke-dasharray="2.997968681156635,4.091718681156635" fill="none"></path>
    <path d="M999.31898,716.158851 L1390.92483,1104.49397" id="Stroke-120" stroke="#C3C3C7" stroke-width="0.5" stroke-dasharray="3.283437602221966,4.377187341451645" fill="none"></path>
    <path d="M1393.97252,1107.51621 C1395.4716,1109.0049 1396.25775,1109.78235 1396.25775,1109.78235 M988.859904,705.772179 C989.514673,706.432158 990.206058,707.124176 990.938365,707.848232 C991.334673,708.243365 992.10575,709.005866 993.223596,710.116512 M940.228212,692.230845 C941.240519,692.230845 942.224827,692.230845 943.181135,692.232981" id="Stroke-121" stroke="#C3C3C7" stroke-width="0.5" fill="none"></path>
    <path d="M932.784519,692.224438 L162.052212,692.224438" id="Stroke-122" stroke="#C3C3C7" stroke-width="0.5" stroke-dasharray="3.258281350135803,4.352031350135803" fill="none"></path>
    <path d="M0.07622548,384.979268 L545.092212,384.979268" id="Stroke-123" stroke="#C3C3C7" stroke-width="0.5" stroke-dasharray="3.29328116029501,4.387031421065331" fill="none"></path>
    <path d="M1320.92052,967.113509 L1354.17806,1000.09328" id="Stroke-133" stroke="#C3C3C7" stroke-width="0.5" stroke-dasharray="2.943281233310699,4.037031233310699" fill="none"></path>
    <path d="M1354.59375,999.038164 L1089.39067,1262.02624" id="Stroke-134" stroke="#C3C3C7" stroke-width="0.5" stroke-dasharray="3.351249881088734,4.445000141859055" fill="none"></path>
</svg>